<svg xmlns="http://www.w3.org/2000/svg" version="1.1" xmlns:xlink="http://www.w3.org/1999/xlink" width="512" height="512" x="0" y="0" viewBox="0 0 60 60" style="enable-background:new 0 0 512 512" xml:space="preserve" class=""><g><rect width="58" height="44" x="1" y="15" fill="#7f8d93" rx="5" opacity="1" data-original="#7f8d93"></rect><path fill="#545c60" d="M54 15h-3a5 5 0 0 1 5 5v34a5 5 0 0 1-5 5h3a5 5 0 0 0 5-5V20a5 5 0 0 0-5-5z" opacity="1" data-original="#545c60" class=""></path><path fill="#7f8d93" d="M25 9h10a6 6 0 0 1 6 6H19a6 6 0 0 1 6-6z" opacity="1" data-original="#7f8d93"></path><path fill="#545c60" d="M35 9h-3a6 6 0 0 1 6 6h3a6 6 0 0 0-6-6z" opacity="1" data-original="#545c60" class=""></path><path fill="#607d8a" d="M28 1h4a2 2 0 0 1 2 2v6h-8V3a2 2 0 0 1 2-2z" opacity="1" data-original="#607d8a"></path><path fill="#37474f" d="M32 1h-3a2 2 0 0 1 2 2v6h3V3a2 2 0 0 0-2-2z" opacity="1" data-original="#37474f"></path><path fill="#02a8f3" d="M55 21v10H5V21a2.006 2.006 0 0 1 2-2h46a2.006 2.006 0 0 1 2 2z" opacity="1" data-original="#02a8f3"></path><path fill="#0377bb" d="M53 19h-3a2.006 2.006 0 0 1 2 2v10h3V21a2.006 2.006 0 0 0-2-2z" opacity="1" data-original="#0377bb"></path><path fill="#60a817" d="M55 31v14a2.006 2.006 0 0 1-2 2H7a2.006 2.006 0 0 1-2-2V31z" opacity="1" data-original="#60a817"></path><path fill="#549314" d="M52 31v14a2.006 2.006 0 0 1-2 2h3a2.006 2.006 0 0 0 2-2V31z" opacity="1" data-original="#549314"></path><g fill="#9d9d9d"><rect width="8" height="4" x="26" y="51" rx="1" fill="#9d9d9d" opacity="1" data-original="#9d9d9d"></rect><path d="M16 51h5a1 1 0 0 1 1 1v2a1 1 0 0 1-1 1h-5a2 2 0 0 1-2-2 2 2 0 0 1 2-2zM39 51h5a2 2 0 0 1 2 2 2 2 0 0 1-2 2h-5a1 1 0 0 1-1-1v-2a1 1 0 0 1 1-1zM48 47l-9-16H21l-9 16z" fill="#9d9d9d" opacity="1" data-original="#9d9d9d"></path></g><path fill="#707070" d="M39 31h-3l9 16h3z" opacity="1" data-original="#707070"></path><path fill="#a3c300" d="M18 31H5v-7s8.67 1 13 7zM55 24v7H42c4.33-6 13-7 13-7z" opacity="1" data-original="#a3c300"></path><path fill="#8fab00" d="M52 24.641V31h3v-7a21.322 21.322 0 0 0-3 .641z" opacity="1" data-original="#8fab00"></path><path d="M54 14H41.92A7.006 7.006 0 0 0 35 8V3a3 3 0 0 0-3-3h-4a3 3 0 0 0-3 3v5a7.006 7.006 0 0 0-6.92 6H6a6.006 6.006 0 0 0-6 6v34a6.006 6.006 0 0 0 6 6h48a6.006 6.006 0 0 0 6-6V20a6.006 6.006 0 0 0-6-6zM27 3a1 1 0 0 1 1-1h4a1 1 0 0 1 1 1v5h-6zm-2 7h10a5.008 5.008 0 0 1 4.9 4H20.1a5.008 5.008 0 0 1 4.9-4zm33 44a4 4 0 0 1-4 4H6a4 4 0 0 1-4-4V20a4 4 0 0 1 4-4h48a4 4 0 0 1 4 4z" fill="#000000" opacity="1" data-original="#000000" class=""></path><path d="M53 18H7a3 3 0 0 0-3 3v24a3 3 0 0 0 3 3h46a3 3 0 0 0 3-3V21a3 3 0 0 0-3-3zM7 20h46a1 1 0 0 1 1 1v2.146c-2.325.42-8.671 1.986-12.478 6.854H18.478C14.671 25.132 8.325 23.566 6 23.146V21a1 1 0 0 1 1-1zm47 5.189V30h-9.8c3.214-3.145 7.733-4.389 9.8-4.811zM30 43a1 1 0 0 0-1 1v2H13.709l7.875-14H29v1a1 1 0 0 0 2 0v-1h7.416l7.875 14H31v-2a1 1 0 0 0-1-1zM6 25.189c2.067.422 6.586 1.666 9.8 4.811H6zM6 45V32h13.291l-7.875 14H7a1 1 0 0 1-1-1zm47 1h-4.416l-7.875-14H54v13a1 1 0 0 1-1 1zM33 50h-6a2 2 0 0 0-2 2v2a2 2 0 0 0 2 2h6a2 2 0 0 0 2-2v-2a2 2 0 0 0-2-2zm-6 4v-2h6v2zM21 50h-5a3 3 0 0 0 0 6h5a2 2 0 0 0 2-2v-2a2 2 0 0 0-2-2zm-5 4a1 1 0 0 1 0-2h5v2zM44 50h-5a2 2 0 0 0-2 2v2a2 2 0 0 0 2 2h5a3 3 0 0 0 0-6zm0 4h-5v-2h5a1 1 0 0 1 0 2z" fill="#000000" opacity="1" data-original="#000000" class=""></path><path d="M31 37a1 1 0 0 0-2 0v3a1 1 0 0 0 2 0z" fill="#000000" opacity="1" data-original="#000000" class=""></path></g></svg>