<svg xmlns="http://www.w3.org/2000/svg" version="1.1" xmlns:xlink="http://www.w3.org/1999/xlink" width="512" height="512" x="0" y="0" viewBox="0 0 64 64" style="enable-background:new 0 0 512 512" xml:space="preserve" class=""><g><path fill="#e6e9ed" d="M2 32v28c0 1.1.9 2 2 2h56c1.1 0 2-.9 2-2V32z" opacity="1" data-original="#e6e9ed" class=""></path><path fill="#69d6f4" d="M16 54h6v4h-6z" opacity="1" data-original="#69d6f4" class=""></path><path fill="#fcd770" d="M6 54h6v4H6zM26 54h6v4h-6z" opacity="1" data-original="#fcd770" class=""></path><path fill="#ff826e" d="M6 36h26v14H6z" opacity="1" data-original="#ff826e" class=""></path><path fill="#fcd770" d="M2 32v-6c0-1.1.9-2 2-2h30.32l4.63 8zM62 26v6h-8.95l4.63-8H60c1.1 0 2 .9 2 2z" opacity="1" data-original="#fcd770" class=""></path><path fill="#b4dd7f" d="M32 20h28l-2.32 4-4.63 8L49 39h-6l-4.05-7-4.63-8zM49 39v5l-5 2h-1v-7z" opacity="1" data-original="#b4dd7f" class=""></path><path fill="#a0d468" d="M62 17v2c0 .55-.45 1-1 1H31c-.55 0-1-.45-1-1v-2c0-.55.45-1 1-1h30c.55 0 1 .45 1 1z" opacity="1" data-original="#a0d468"></path><circle cx="60" cy="6" r="2" fill="#ff826e" opacity="1" data-original="#ff826e" class=""></circle><circle cx="46" cy="4" r="2" fill="#ff826e" opacity="1" data-original="#ff826e" class=""></circle><path fill="#ffc729" d="M20 11v2l-1.39.47c-.13.4-.3.79-.48 1.15l.65 1.33-2.83 2.83-1.33-.65c-.36.18-.75.35-1.15.48L13 20H9l-.47-1.39c-.4-.13-.79-.3-1.15-.48l-1.33.65-2.83-2.83.65-1.33a8.42 8.42 0 0 1-.48-1.15L2 13V9l1.39-.47c.13-.4.3-.79.48-1.15l-.65-1.33 2.83-2.83 1.33.65c.36-.18.75-.35 1.15-.48L9 2h4l.47 1.39c.4.13.79.3 1.15.48l1.33-.65 2.83 2.83-.65 1.33c.18.36.35.75.48 1.15L20 9zm-5 0c0-2.21-1.79-4-4-4s-4 1.79-4 4 1.79 4 4 4 4-1.79 4-4z" opacity="1" data-original="#ffc729" class=""></path><path d="m47.552 31.515 5.223-9.018 1.73 1.002-5.223 9.018zM45.269 35.477l1.156-1.999 1.732 1.002-1.156 1.999z" fill="#000000" opacity="1" data-original="#000000" class=""></path><path d="M61 15H51v-1c0-.551.448-1 1-1h6c1.654 0 3-1.346 3-3V8.816A2.996 2.996 0 0 0 63 6c0-1.654-1.346-3-3-3s-3 1.346-3 3c0 1.302.839 2.402 2 2.816V10c0 .551-.448 1-1 1h-6c-1.654 0-3 1.346-3 3v1h-2V6.816A2.996 2.996 0 0 0 49 4c0-1.654-1.346-3-3-3s-3 1.346-3 3c0 1.302.839 2.402 2 2.816V15h-2v-2c0-1.654-1.346-3-3-3H21V8.284l-1.617-.551a10.39 10.39 0 0 0-.146-.35l.755-1.534-3.84-3.841-1.535.755a6.631 6.631 0 0 0-.35-.146L13.716 1H8.284l-.551 1.617a8.08 8.08 0 0 0-.349.147l-1.535-.756-3.84 3.842.755 1.534a8.646 8.646 0 0 0-.147.349L1 8.284v5.432l1.617.551c.046.117.095.233.146.35l-.754 1.533 3.84 3.841 1.535-.755c.116.052.232.101.35.146L8.284 21h5.432l.551-1.617c.117-.046.233-.095.35-.146l1.535.755 3.84-3.841-.755-1.534c.052-.116.101-.233.146-.35L21 13.716V12h19c.552 0 1 .449 1 1v2H31c-1.103 0-2 .897-2 2v2c0 1.103.897 2 2 2h.424l1.158 2H4c-1.654 0-3 1.346-3 3v34c0 1.654 1.346 3 3 3h56c1.654 0 3-1.346 3-3V26c0-1.654-1.346-3-3-3h-.582l1.158-2H61c1.103 0 2-.897 2-2v-2c0-1.103-.897-2-2-2zM60 5a1.001 1.001 0 1 1-1 1c0-.551.448-1 1-1zM46 3a1.001 1.001 0 1 1-1 1c0-.551.448-1 1-1zm-27 9.284-1.19.405-.155.476c-.108.334-.25.672-.419 1.006l-.228.446.558 1.133-1.816 1.816-1.133-.558-.447.228c-.332.169-.67.311-1.004.42l-.476.155L12.284 19H9.716l-.405-1.19-.476-.155a6.93 6.93 0 0 1-1.004-.42l-.447-.228-1.133.558-1.816-1.816.558-1.133-.228-.446a6.991 6.991 0 0 1-.419-1.006l-.156-.475L3 12.284V9.716l1.19-.405.155-.476c.108-.334.25-.672.419-1.006l.228-.446-.557-1.132 1.816-1.816 1.133.558.447-.228c.332-.169.67-.311 1.004-.42l.476-.155L9.716 3h2.568l.405 1.19.476.155c.334.109.672.25 1.004.42l.447.228 1.133-.558 1.816 1.816-.558 1.133.228.446c.169.333.311.672.419 1.006l.155.476L19 9.716zM4 25h29.739l3.474 6H3v-5c0-.551.448-1 1-1zm56 36H4c-.552 0-1-.449-1-1V33h35.371L42 39.269V47h2.192L50 44.677v-5.409L53.629 33H61v27c0 .551-.448 1-1 1zM48 40v3.323l-4 1.6V40zm12-15c.552 0 1 .449 1 1v5h-6.213l3.474-6zM48.423 38h-4.847l-9.842-17h24.531zM31 19v-2h30l.001 2z" fill="#000000" opacity="1" data-original="#000000" class=""></path><path d="M11 6c-2.757 0-5 2.243-5 5s2.243 5 5 5 5-2.243 5-5-2.243-5-5-5zm0 8c-1.654 0-3-1.346-3-3s1.346-3 3-3 3 1.346 3 3-1.346 3-3 3zM13 27h2v2h-2zM5 27h2v2H5zM9 27h2v2H9zM5 51h28V35H5zm2-14h24v12H7zM5 59h8v-6H5zm2-4h4v2H7zM15 59h8v-6h-8zm2-4h4v2h-4zM25 59h8v-6h-8zm2-4h4v2h-4zM35 49h2v2h-2zM39 49h20v2H39zM35 53h24v2H35zM35 57h24v2H35z" fill="#000000" opacity="1" data-original="#000000" class=""></path></g></svg>